#!OML:ASF E:/inclinewalkrobotboard/Project1/Captureday1/Session1/subject1.ASF
:FULLY-SPECIFIED
:DEGREES
138
root 0 0 0 -0.5093146920911147 -3.016839192959963 -0.19510562374843676
lowerback 11.216205588901902 0.6352853368126791 0.39963794313170176
upperback -1.9403439384929402 0.9283305147300895 0.4974948386580798
thorax -8.373208940682163 0.43217178781529136 0.1097822996039522
lowerneck -11.417110055074742 -0.6321971702268397 1.34703474585681
upperneck 18.859941179384993 -0.2540103751763174 -3.8979356349338516
head 7.824135024236457 -0.3160473444550469 -1.5693859511922414
rclavicle -5.483488163404864E-16 -6.197436443617325E-16
rhumerus -0.5286613481781206 0.907034091467052 -60.2146168504132
rradius 53.33592049791769
rwrist 17.45116961840465
rhand -27.240581543326915 -23.42743089781156
rfingers 7.125019999999925
rthumb -0.8340230932331076 -53.56422064870742
lclavicle -4.901342824617965E-16 -6.928947165748807E-16
lhumerus -1.300192344142065 -6.923724374184458 60.49149383014311
lradius 52.63360591204681
lwrist -11.129662546560608
lhand -37.26818955065326 -31.210561701489553
lfingers 7.12501999999992
lthumb -10.370860311138475 -1.656930483850232
rfemur -21.38543228457845 -0.3427111503611817 19.542835032149355
rtibia 50.61720800773654
rfoot -22.77321910211779 -13.8553028718375
rtoes -12.231145280348159
lfemur -23.128547115158938 1.5474493975675332 -18.142009150591537
ltibia 50.125076370687026
lfoot -25.957077102835772 -3.653187513108679
ltoes -16.720044766268636
139
root 0 0 0 -0.5122785227582765 -3.01591356567694 -0.19804348719492815
lowerback 11.215102352848298 0.6348147019254595 0.40026205287828853
upperback -1.9365890794992373 0.927923863051231 0.49919139971771226
thorax -8.368429999852543 0.4320344679634056 0.11128164570382643
lowerneck -11.425107603522795 -0.6355722249018708 1.3420934489121588
upperneck 18.86048680298422 -0.2590382365058783 -3.891414075739321
head 7.825616312129071 -0.3182426480493575 -1.5669174452444252
rclavicle -5.486236743602404E-16 -6.203745848353271E-16
rhumerus -0.5207747746931197 0.9125210872399236 -60.20896272654213
rradius 53.34372777970758
rwrist 17.455434917928358
rhand -27.243645598433567 -23.441869016008802
rfingers 7.125019999999925
rthumb -0.8371704329181089 -53.579403496150476
lclavicle -4.900488091810368E-16 -6.937097012045407E-16
lhumerus -1.2833337868414283 -6.927910537074756 60.47961091160829
lradius 52.64889221096758
lwrist -11.138803793715674
lhand -37.274524829895306 -31.239931766679405
lfingers 7.12501999999992
lthumb -10.376551495741577 -1.688581893930504
rfemur -21.379292611414463 -0.33882923763052286 19.547929578202403
rtibia 50.608585852687845
rfoot -22.761795767279573 -13.849405190732673
rtoes -12.218668072436905
lfemur -23.120738058733156 1.545594674966585 -18.143024277909323
ltibia 50.115945798883075
lfoot -25.94587059446024 -3.652957635762342
ltoes -16.71343545062326
140
root 0 0 0 -0.510307669939996 -3.0165326030197797 -0.19613975276231277
lowerback 11.215820643047653 0.6351270299043981 0.3998669751084374
upperback -1.9390551001054277 0.9282178416294584 0.4980900672059181
thorax -8.371589552142133 0.4321277631318978 0.11030678200783833
lowerneck -11.419876050880319 -0.6333456775165149 1.3453566066584597
upperneck 18.860158926420702 -0.2557595657435594 -3.8956922211677725
head 7.824666148943078 -0.31681446347341025 -1.56854935342193
rclavicle -5.483152155699804E-16 -6.199343964176727E-16
rhumerus -0.5191320373485357 0.913330108606683 -60.20886053856642
rradius 53.344672080830904
rwrist 17.455624263181065
rhand -27.243804924775933 -23.442706732738415
rfingers 7.125019999999925
rthumb -0.8370519673603543 -53.57931378077883
lclavicle -4.89933240570407E-16 -6.930066675908971E-16
lhumerus -1.2869340675135028 -6.926922629874056 60.48215129552686
lradius 52.643893759625996
lwrist -11.136579659314247
lhand -37.27264471223235 -31.233806092371935
lfingers 7.12501999999992
lthumb -10.37509371261628 -1.6802369829144368
rfemur -21.37995211355635 -0.3392873658592057 19.547340518398354
rtibia 50.60962989873641
rfoot -22.763140741894865 -13.85042775886378
rtoes -12.22058375181782
lfemur -23.130955277017083 1.5480581321590772 -18.141723909650654
ltibia 50.128393735803314
lfoot -25.960532132198963 -3.653434164006599
ltoes -16.72235908918874
141
root 0 0 0 -0.5096117984381452 -3.0167846819778004 -0.19547056214431746
lowerback 11.21609242581258 0.6352589870698453 0.39975162321868474
upperback -1.939956258284926 0.9283270256964423 0.4976740207178059
thorax -8.372731700594073 0.4321632382326748 0.1099142091467652
lowerneck -11.417947739116157 -0.632561390217716 1.346529981371804
upperneck 18.86001581476205 -0.25454912046035716 -3.8972579290365967
head 7.824300088798004 -0.3162798906705281 -1.5691302953368558
rclavicle -5.483674994807277E-16 -6.198376660308955E-16
rhumerus -0.5206553403350078 0.9123079509152028 -60.20982256831354
rradius 53.34322537386521
rwrist 17.454852094016704
rhand -27.24325660963031 -23.440219045621546
rfingers 7.125019999999925
rthumb -0.8365216691392954 -53.57690125422807
lclavicle -4.900454313002587E-16 -6.929231662170688E-16
lhumerus -1.2947564671595195 -6.925010135699507 60.487640763343556
lradius 52.637774118584936
lwrist -11.132511328930535
lhand -37.2700073197158 -31.220044123013125
lfingers 7.12501999999992
lthumb -10.372594649593502 -1.6665199709522724
rfemur -21.38140686615968 -0.3402831178119192 19.5461019412154
rtibia 50.611944484469774
rfoot -22.766035392797853 -13.851799957555276
rtoes -12.223540987149967
lfemur -23.13329965979905 1.548605522636289 -18.141500741772262
ltibia 50.13086868717039
lfoot -25.963704649980734 -3.653464340977508
ltoes -16.72438341758116
142
root 0 0 0 -0.5093246434702192 -3.016870332471504 -0.19515715791402788
lowerback 11.21620304891543 0.6353042146448813 0.39967559857673896
upperback -1.9403322313057583 0.9283557083086965 0.49749858224537363
thorax -8.373190516334551 0.43217609089721526 0.10976338352089354
lowerneck -11.417143967885753 -0.6322309741973955 1.347011329941328
upperneck 18.859951320307182 -0.25404194396207624 -3.897904674172561
head 7.824145554046912 -0.31605540589934367 -1.5693725122930569
rclavicle -5.48333025777035E-16 -6.197526860754086E-16
rhumerus -0.5277038045092546 0.9076738827031505 -60.21405771210281
rradius 53.33678724637031
rwrist 17.451592016342616
rhand -27.240895070224347 -23.428941523432677
rfingers 7.125019999999925
rthumb -0.834312924690197 -53.56569195768344
lclavicle -4.901787716422438E-16 -6.928787578366317E-16
lhumerus -1.3028385763101458 -6.923079082197598 60.493333635706136
lradius 52.631558334074384
lwrist -11.128293375378844
lhand -37.26731058892615 -31.205953452204305
lfingers 7.12501999999992
lthumb -10.370017986616759 -1.6522992394493414
rfemur -21.383328897541045 -0.3414531641609342 19.544536387033947
rtibia 50.61449200655311
rfoot -22.76948642129571 -13.853483342462102
rtoes -12.227202713056428
lfemur -23.130247263794963 1.54785845271017 -18.1418182396489
ltibia 50.12708984021623
lfoot -25.95942018419094 -3.653263882353561
ltoes -16.72155570903119
143
root 0 0 0 -0.5122054867242891 -3.015969709278062 -0.19800659722303904
lowerback 11.215132026257391 0.6348463587483636 0.4002790684590563
upperback -1.936686115484282 0.9279581559698422 0.49914548158165
thorax -8.368547741847049 0.4320425271383747 0.11121919982712397
lowerneck -11.424911156871973 -0.635509337975217 1.3422117999501584
upperneck 18.860479647307102 -0.25892304571072167 -3.8915702331642708
head 7.825581946011274 -0.31818661379091284 -1.566974247435271
rclavicle -5.486037789033092E-16 -6.203851844775385E-16
rhumerus -0.5197105225426757 0.9132327455271891 -60.2083413806174
rradius 53.34469307222363
rwrist 17.45590299227697
rhand -27.243993964722467 -23.443546635339906
rfingers 7.125019999999925
rthumb -0.8374920150454557 -53.5810365029217
lclavicle -4.900994204222122E-16 -6.93692937443702E-16
lhumerus -1.286334949647916 -6.927177531908109 60.48169600330513
lradius 52.646567728972926
lwrist -11.137252108263898
lhand -37.27352814743276 -31.23470536947321
lfingers 7.12501999999992
lthumb -10.375596252356765 -1.6833280625494034
rfemur -21.37743144020577 -0.33772554565707047 19.549428004088323
rtibia 50.60621171195868
rfoot -22.7585144070486 -13.847803445164264
rtoes -12.215201859745225
lfemur -23.122065091844057 1.545911064272135 -18.14287080212185
ltibia 50.11748875943662
lfoot -25.94768099280556 -3.653010937814023
ltoes -16.71459509296468
144
root 0 0 0 -0.5101873980807887 -3.0166003034282247 -0.19604969731719746
lowerback 11.215868560371385 0.635164327892663 0.39986984101544804
upperback -1.9392137570981123 0.9282553544137755 0.49801621868574847
thorax -8.37178506815664 0.4321375834994822 0.1102214308453856
lowerneck -11.419548203647643 -0.6332260848962044 1.3455559755897508
upperneck 18.860141473126887 -0.2555598876042251 -3.8959556446835215
head 7.824605912089782 -0.316721983424313 -1.5686464484568559
rclavicle -5.482929014706619E-16 -6.199473474840372E-16
rhumerus -0.5179276314657564 0.9141342464101694 -60.20815487585665
rradius 53.34576728735755
rwrist 17.456156769478298
rhand -27.244200227133142 -23.44460797870994
rfingers 7.125019999999925
rthumb -0.837417406937651 -53.58116855687507
lclavicle -4.899816107529401E-16 -6.929922666723294E-16
lhumerus -1.289730541261589 -6.926238365660202 60.484091826698446
lradius 52.64172722232429
lwrist -11.13513519425287
lhand -37.27171673218867 -31.228938047397158
lfingers 7.12501999999992
lthumb -10.374204053632276 -1.675343788449009
rfemur -21.37834839264443 -0.3383418201543744 19.548627567158896
rtibia 50.60760094477884
rfoot -22.760326344222506 -13.84905248411625
rtoes -12.217610232277252
lfemur -23.13202929682997 1.5483125240128257 -18.14159731065048
ltibia 50.129626008058956
lfoot -25.961987011681916 -3.6534735999223784
ltoes -16.72328656505941
145
root 0 0 0 -0.5094535156437282 -3.016859758548872 -0.19533562772308788
lowerback 11.216154964020207 0.63529964673267 0.39974132978499566
upperback -1.9401643378537718 0.928365712816007 0.49757792498150005
thorax -8.372989955686347 0.4321741961889938 0.10981177259623226
lowerneck -11.417513890053593 -0.6323949960193306 1.3467947719581352
upperneck 18.85998972266054 -0.2542807419260189 -3.8976081971050087
head 7.824218800796255 -0.3161580980418949 -1.5692600411557414
rclavicle -5.483431150812712E-16 -6.198532872244427E-16
rhumerus -0.5192920569651509 0.9132163581305424 -60.20902069320906
rradius 53.34446802120728
rwrist 17.455458809013113
rhand -27.243705426884155 -23.442374692089587
rfingers 7.125019999999925
rthumb -0.8369374135166803 -53.57900977319659
lclavicle -4.900882210855454E-16 -6.929122220259152E-16
lhumerus -1.297122867036741 -6.9244293536727906 60.4892797188095
lradius 52.635939835100146
lwrist -11.131290808087932
lhand -37.26922293515155 -31.215927517201273
lfingers 7.12501999999992
lthumb -10.371842406084845 -1.66238294123416
rfemur -21.380097131844607 -0.33951606821711167 19.547149185349205
rtibia 50.61030297942801
rfoot -22.763749478144547 -13.85068159044187
rtoes -12.22112540498891
lfemur -23.13413513331362 1.548801927477553 -18.14140033051931
ltibia 50.131812684105064
lfoot -25.964827622668277 -3.6534917279100214
ltoes -16.725095418032353
